<svg xmlns="http://www.w3.org/2000/svg" viewBox="0 0 40 36.2">
  <defs/>
  <g id="Camada_2" data-name="Camada 2">
    <g id="Camada_1-2" data-name="Camada 1">
      <path class="cls-1" d="M37 6h-3.48v2H37a1 1 0 011 1v16.69a1 1 0 01-1 1h-6v5.17l-6-5.17H12.85l-2.3 2h13.77L33 36.2v-7.54h4a3 3 0 003-3V9a3 3 0 00-3-3z"/>
      <path class="cls-1" d="M29 21a2 2 0 002-2V2a2 2 0 00-2-2H2a2 2 0 00-2 2v17a2 2 0 002 2h5.06v6.46L14.54 21zM21.52 9a2 2 0 11-2 2 2 2 0 012-2zm-12 4a2 2 0 112-2 2 2 0 01-2 2zm4-2a2 2 0 112 2 2 2 0 01-2-2z"/>
    </g>
  </g>
</svg>
