<svg xmlns="http://www.w3.org/2000/svg" viewBox="0 0 512 512">
  <path d="M256 0C117.7-2.7 3.2 107 0 245.4.4 315.8 31.6 382.5 85.4 428v73.4c0 5.9 4.8 10.7 10.7 10.7 2 0 4-.6 5.7-1.6l59.5-37.1c30.3 11.6 62.5 17.5 94.9 17.4 138.4 2.7 252.8-107 256-245.3C508.9 107 394.4-2.7 256 0zm167.6 188.9l-128 128c-3.9 3.9-10.3 4.2-14.5.6L212 258.3l-110.9 60.5c-4.1 2.2-9.3 1.5-12.6-1.8-4.2-4.2-4.2-10.9 0-15.1l128-128c3.9-3.9 10.3-4.2 14.5-.6l69 59.2L410.9 172c4.7-2.5 10.5-1.3 13.7 3 3.2 4.2 2.8 10.1-1 13.9z"/>
</svg>
